<?xml version="1.0" encoding="UTF-8" standalone="no"?>
<!-- Created with Inkscape (http://www.inkscape.org/) -->

<svg
   width="60.313122mm"
   height="31.487942mm"
   viewBox="0 0 60.313122 31.487942"
   version="1.1"
   id="svg1"
   inkscape:version="1.3 (0e150ed6c4, 2023-07-21)"
   xmlns:inkscape="http://www.inkscape.org/namespaces/inkscape"
   xmlns:sodipodi="http://sodipodi.sourceforge.net/DTD/sodipodi-0.dtd"
   xmlns="http://www.w3.org/2000/svg"
   xmlns:svg="http://www.w3.org/2000/svg">
  <sodipodi:namedview
     id="namedview1"
     pagecolor="#ffffff"
     bordercolor="#000000"
     borderopacity="0.25"
     inkscape:showpageshadow="2"
     inkscape:pageopacity="0.0"
     inkscape:pagecheckerboard="0"
     inkscape:deskcolor="#d1d1d1"
     inkscape:document-units="mm"
     inkscape:zoom="1.0877315"
     inkscape:cx="396.69717"
     inkscape:cy="561.25984"
     inkscape:window-width="3332"
     inkscape:window-height="1417"
     inkscape:window-x="2020"
     inkscape:window-y="-8"
     inkscape:window-maximized="1"
     inkscape:current-layer="layer1" />
  <defs
     id="defs1" />
  <g
     inkscape:label="Layer 1"
     inkscape:groupmode="layer"
     id="layer1"
     transform="translate(-74.347916,-84.402083)">
    <g
       id="Layer1005"
       transform="matrix(0.35277721,0,0,0.35277721,50.570062,31.503176)">
      <g
         id="Layer1006">
        <path
           d="m 134.2559,228.9217 c 2.1884,1.2632 2.9968,4.0187 1.8873,6.2518 5.2399,2.4616 11.0548,3.8912 17.1797,4.0216 -0.3067,0.006 -0.6137,0.0121 -0.9221,0.0121 -5.9125,0 -11.5628,-1.161 -16.7347,-3.2655 -1.4303,1.8814 -4.0824,2.4546 -6.1809,1.243 -2.0103,-1.1608 -2.8559,-3.5813 -2.1203,-5.6985 -4.4955,-3.0622 -8.3693,-6.8955 -11.4815,-11.3255 h 2.8089 c 0.7937,1.1849 1.6441,2.3275 2.5492,3.4254 h -0.009 c 2.0197,2.4483 4.3059,4.6689 6.8125,6.6183 1.4227,-1.9137 4.0978,-2.503 6.2113,-1.2827 z m 44.2848,-74.8652 c 2.0903,1.2067 2.9211,3.776 2.0248,5.9499 10.0361,8.1952 16.4639,20.6563 16.4639,34.5722 0,0.3084 -0.006,0.6151 -0.0122,0.9221 -0.2945,-13.8447 -7.2224,-26.1045 -17.7188,-33.7241 -1.4947,1.3062 -3.7173,1.5888 -5.5284,0.5431 -1.8082,-1.044 -2.6759,-3.1064 -2.2963,-5.0513 -5.2759,-2.3366 -11.1065,-3.6357 -17.2316,-3.6357 -13.9782,0 -26.4268,6.7629 -34.243,17.1833 0.6735,1.3799 0.6729,3.0595 -0.1497,4.4844 -0.8668,1.5016 -2.4355,2.3545 -4.0567,2.3831 -2.7759,5.6639 -4.3378,12.0235 -4.3378,18.7365 0,1.0559 0.0399,2.1019 0.1159,3.1391 h -3.5175 c -0.1831,-1.6362 -0.2812,-3.297 -0.2812,-4.9805 0,-6.6977 1.4922,-13.0575 4.1553,-18.7682 -1.1296,-1.4856 -1.33,-3.568 -0.341,-5.2807 1.0091,-1.7478 2.9707,-2.6152 4.8569,-2.3286 8.1357,-11.0546 21.232,-18.2512 35.9575,-18.2512 7.3142,0 14.2268,1.7756 20.3289,4.9178 1.4859,-1.5304 3.8829,-1.9244 5.811,-0.8112 z"
           style="fill:#1c60a9;fill-opacity:1;fill-rule:evenodd"
           id="path9" />
        <path
           d="m 177.7243,155.4707 c 1.4967,0.864 2.0126,2.7896 1.1486,4.2865 -0.8642,1.4967 -2.7898,2.0126 -4.2865,1.1486 -1.497,-0.8643 -2.0129,-2.7898 -1.1486,-4.2865 0.8643,-1.497 2.7896,-2.0129 4.2865,-1.1486 z m -60.4374,14.7268 c 1.4969,0.8643 2.0128,2.7899 1.1486,4.2866 -0.864,1.4969 -2.7896,2.0128 -4.2866,1.1486 -1.4967,-0.864 -2.0126,-2.7896 -1.1486,-4.2866 0.8643,-1.4967 2.7899,-2.0126 4.2866,-1.1486 z m 16.1526,60.1382 c 1.4967,0.864 2.0126,2.7895 1.1486,4.2865 -0.8643,1.4967 -2.7898,2.0126 -4.2865,1.1486 -1.497,-0.8643 -2.0129,-2.7899 -1.1486,-4.2865 0.864,-1.497 2.7896,-2.0129 4.2865,-1.1486 z"
           style="fill:#ffffff;fill-rule:evenodd"
           id="path10" />
      </g>
      <g
         id="Layer1007">
        <path
           d="m 141.6855,199.5741 h -3.7499 v -6.2399 h 3.7499 c 0.1936,0 0.341,0.0601 0.4448,0.18 0.1037,0.1202 0.155,0.2602 0.155,0.4201 0,0.1664 -0.0513,0.3087 -0.155,0.4249 -0.1038,0.1162 -0.2512,0.1752 -0.4448,0.1752 h -2.55 v 0.9399 h 1.5499 c 0.1937,0 0.3413,0.0598 0.4451,0.18 0.1037,0.1199 0.1548,0.26 0.1548,0.4198 0,0.1664 -0.0511,0.309 -0.1548,0.4252 -0.1038,0.1163 -0.2514,0.1749 -0.4451,0.1749 h -1.5499 v 1.7 h 2.55 c 0.1936,0 0.341,0.0601 0.4448,0.18 0.1037,0.1199 0.155,0.2599 0.155,0.4201 0,0.1661 -0.0513,0.3087 -0.155,0.4249 -0.1038,0.1162 -0.2512,0.1749 -0.4448,0.1749 z m 6.6198,0 h -3.75 v -6.2399 h 3.75 c 0.1936,0 0.341,0.0601 0.4447,0.18 0.1038,0.1202 0.1551,0.2602 0.1551,0.4201 0,0.1664 -0.0513,0.3087 -0.1551,0.4249 -0.1037,0.1162 -0.2511,0.1752 -0.4447,0.1752 h -2.5501 v 0.9399 h 1.55 c 0.1936,0 0.3413,0.0598 0.445,0.18 0.1038,0.1199 0.1548,0.26 0.1548,0.4198 0,0.1664 -0.051,0.309 -0.1548,0.4252 -0.1037,0.1163 -0.2514,0.1749 -0.445,0.1749 h -1.55 v 1.7 h 2.5501 c 0.1936,0 0.341,0.0601 0.4447,0.18 0.1038,0.1199 0.1551,0.2599 0.1551,0.4201 0,0.1661 -0.0513,0.3087 -0.1551,0.4249 -0.1037,0.1162 -0.2511,0.1749 -0.4447,0.1749 z m 7.4395,-3.0699 c 0.2863,0.3138 0.43,0.6664 0.43,1.0601 0,0.54 -0.2537,1.0437 -0.76,1.5097 -0.4062,0.3802 -1.0063,0.5701 -1.8,0.5701 -0.6599,0 -1.3036,-0.1261 -1.9298,-0.3798 -0.2537,-0.1001 -0.3801,-0.2801 -0.3801,-0.54 0,-0.1602 0.0564,-0.3039 0.1701,-0.4301 0.1136,-0.1264 0.2537,-0.1899 0.4201,-0.1899 0.0799,0 0.1598,0.0162 0.2398,0.0499 0.4864,0.1936 0.9799,0.29 1.4799,0.29 0.4802,0 0.8102,-0.0836 0.9902,-0.25 0.2199,-0.2064 0.3299,-0.3938 0.3299,-0.5599 0,-0.3937 -0.47,-0.6565 -1.4099,-0.79 -1.5339,-0.22 -2.3001,-0.8263 -2.3001,-1.8201 0,-0.6137 0.29,-1.0738 0.87,-1.3799 0.4601,-0.2401 1.0261,-0.36 1.6999,-0.36 0.6599,0 1.2062,0.1063 1.6402,0.32 0.2262,0.1137 0.3398,0.2863 0.3398,0.5199 0,0.1601 -0.0561,0.305 -0.17,0.4351 -0.1137,0.1298 -0.2537,0.195 -0.4199,0.195 -0.0864,0 -0.18,-0.0238 -0.28,-0.07 -0.2662,-0.1338 -0.6562,-0.1961 -1.1699,-0.1899 -0.3662,0 -0.6664,0.0436 -0.9,0.1298 -0.2664,0.0938 -0.3999,0.2262 -0.3999,0.4 0,0.2401 0.3498,0.4462 1.0499,0.6199 0.4737,0.1063 0.9462,0.2138 1.4199,0.3201 0.3537,0.1338 0.6338,0.3138 0.8399,0.54 z m 7.6,-1.9698 h -1.3902 v 4.4399 c 0,0.1936 -0.0598,0.341 -0.18,0.4447 -0.1199,0.1038 -0.2599,0.1551 -0.4198,0.1551 -0.1664,0 -0.3087,-0.0513 -0.4249,-0.1551 -0.1165,-0.1037 -0.1752,-0.2511 -0.1752,-0.4447 v -4.4399 h -1.58 c -0.1862,0 -0.3336,-0.059 -0.4399,-0.1752 -0.1063,-0.1162 -0.1599,-0.2585 -0.1599,-0.4249 0,-0.1599 0.0536,-0.2999 0.1599,-0.4201 0.1063,-0.1199 0.2537,-0.18 0.4399,-0.18 h 4.1701 c 0.1936,0 0.3412,0.0601 0.445,0.18 0.1037,0.1202 0.1551,0.2602 0.1551,0.4201 0,0.1664 -0.0514,0.3087 -0.1551,0.4249 -0.1038,0.1162 -0.2514,0.1752 -0.445,0.1752 z m 4.1612,4.4399 c 0,0.1936 -0.0587,0.341 -0.1749,0.4447 -0.1162,0.1038 -0.2588,0.1551 -0.4252,0.1551 -0.1599,0 -0.2999,-0.0513 -0.4198,-0.1551 -0.1202,-0.1037 -0.18,-0.2511 -0.18,-0.4447 v -5.04 c 0,-0.1863 0.0598,-0.3337 0.18,-0.44 0.1199,-0.1063 0.2599,-0.1601 0.4198,-0.1601 0.1664,0 0.309,0.0538 0.4252,0.1601 0.1162,0.1063 0.1749,0.2537 0.1749,0.44 z m -96.3541,14.0544 h -3.75 v -6.2399 h 3.75 c 0.1936,0 0.341,0.0601 0.4447,0.18 0.1038,0.1202 0.1551,0.2602 0.1551,0.4201 0,0.1664 -0.0513,0.3087 -0.1551,0.4249 -0.1037,0.1162 -0.2511,0.1752 -0.4447,0.1752 h -2.5501 v 0.94 h 1.55 c 0.1936,0 0.3413,0.0598 0.4451,0.18 0.1037,0.1199 0.1547,0.2599 0.1547,0.4198 0,0.1664 -0.051,0.309 -0.1547,0.4252 -0.1038,0.1162 -0.2515,0.1749 -0.4451,0.1749 h -1.55 v 1.6999 h 2.5501 c 0.1936,0 0.341,0.0601 0.4447,0.18 0.1038,0.1199 0.1551,0.26 0.1551,0.4201 0,0.1661 -0.0513,0.3087 -0.1551,0.4249 -0.1037,0.1162 -0.2511,0.1749 -0.4447,0.1749 z m 6.8896,0 h -3.96 v -5.6398 c 0,-0.1862 0.0601,-0.3336 0.18,-0.4399 0.1202,-0.1063 0.2599,-0.1602 0.4201,-0.1602 0.1598,0 0.2999,0.0539 0.4201,0.1602 0.1199,0.1063 0.18,0.2537 0.18,0.4399 v 4.4399 h 2.7598 c 0.1862,0 0.3336,0.0601 0.4399,0.18 0.1063,0.1199 0.1602,0.26 0.1602,0.4201 0,0.1661 -0.0539,0.3087 -0.1602,0.4249 -0.1063,0.1162 -0.2537,0.1749 -0.4399,0.1749 z m 6.5199,0 h -3.7499 v -6.2399 h 3.7499 c 0.1937,0 0.3411,0.0601 0.4448,0.18 0.1038,0.1202 0.1551,0.2602 0.1551,0.4201 0,0.1664 -0.0513,0.3087 -0.1551,0.4249 -0.1037,0.1162 -0.2511,0.1752 -0.4448,0.1752 h -2.55 v 0.94 h 1.55 c 0.1936,0 0.3413,0.0598 0.445,0.18 0.1038,0.1199 0.1548,0.2599 0.1548,0.4198 0,0.1664 -0.051,0.309 -0.1548,0.4252 -0.1037,0.1162 -0.2514,0.1749 -0.445,0.1749 h -1.55 v 1.6999 h 2.55 c 0.1937,0 0.3411,0.0601 0.4448,0.18 0.1038,0.1199 0.1551,0.26 0.1551,0.4201 0,0.1661 -0.0513,0.3087 -0.1551,0.4249 -0.1037,0.1162 -0.2511,0.1749 -0.4448,0.1749 z m 8.1896,-0.9297 c 0.0737,0.1136 0.11,0.2262 0.11,0.3398 0,0.1661 -0.0649,0.3087 -0.195,0.4249 -0.1298,0.1163 -0.275,0.1752 -0.4349,0.1752 -0.2001,0 -0.3639,-0.0938 -0.4901,-0.28 l -1.701,-2.5926 c -0.2801,0.3739 -0.7163,0.9312 -1.3088,1.6724 v 0.595 c 0,0.1951 -0.0601,0.345 -0.18,0.4488 -0.1202,0.1037 -0.2602,0.1564 -0.4201,0.1564 -0.1661,0 -0.3039,-0.0501 -0.4099,-0.1502 -0.1264,-0.1074 -0.1902,-0.2574 -0.1902,-0.451 V 207.39 c 0,-0.1873 0.0638,-0.3373 0.1902,-0.4509 0.106,-0.1001 0.2438,-0.1503 0.4099,-0.1503 0.1599,0 0.2999,0.0539 0.4201,0.1602 0.1199,0.1063 0.18,0.2537 0.18,0.4399 v 2.52 l 2.2099,-2.88 c 0.1261,-0.1599 0.2801,-0.2401 0.4601,-0.2401 0.1661,0 0.3135,0.0615 0.4399,0.184 0.1261,0.1224 0.1899,0.2625 0.1899,0.4212 0,0.125 -0.0462,0.2475 -0.1375,0.3674 l -1.0723,1.3975 z m 7.2499,-4.11 h -1.3901 v 4.4399 c 0,0.1936 -0.0598,0.341 -0.18,0.4448 -0.1199,0.1037 -0.2599,0.155 -0.4198,0.155 -0.1664,0 -0.3087,-0.0513 -0.4249,-0.155 -0.1165,-0.1038 -0.1752,-0.2512 -0.1752,-0.4448 v -4.4399 h -1.58 c -0.1863,0 -0.3337,-0.059 -0.44,-0.1752 -0.1063,-0.1162 -0.1598,-0.2585 -0.1598,-0.4249 0,-0.1599 0.0535,-0.2999 0.1598,-0.4201 0.1063,-0.1199 0.2537,-0.18 0.44,-0.18 h 4.17 c 0.1936,0 0.3413,0.0601 0.4451,0.18 0.1037,0.1202 0.155,0.2602 0.155,0.4201 0,0.1664 -0.0513,0.3087 -0.155,0.4249 -0.1038,0.1162 -0.2515,0.1752 -0.4451,0.1752 z m 8.1312,0.8399 c 0,0.4924 -0.1261,0.9199 -0.3801,1.2799 -0.2662,0.3789 -0.6324,0.6287 -1.0987,0.7489 l 1.1089,1.161 c 0.1199,0.1202 0.18,0.2563 0.18,0.4102 0,0.1599 -0.0613,0.3011 -0.1851,0.4249 -0.1236,0.1236 -0.2688,0.1851 -0.4349,0.1851 -0.1601,0 -0.3002,-0.0638 -0.4201,-0.1902 l -2.7799,-2.9097 v 2.4973 c 0,0.195 -0.0601,0.3438 -0.18,0.4476 -0.1199,0.1037 -0.2599,0.155 -0.4201,0.155 -0.1661,0 -0.3087,-0.0513 -0.4249,-0.155 -0.1162,-0.1038 -0.1749,-0.2526 -0.1749,-0.4462 v -5.6489 h 3.2199 c 0.5799,0 1.0562,0.199 1.4301,0.595 0.3736,0.3963 0.5598,0.8776 0.5598,1.4451 z m -1.1999,0 c 0,-0.2401 -0.095,-0.4399 -0.2852,-0.6001 -0.1899,-0.1599 -0.4087,-0.2398 -0.6548,-0.2398 h -1.87 v 1.8 h 1.7399 c 0.3739,0 0.6401,-0.0601 0.7999,-0.18 0.18,-0.1463 0.2702,-0.4065 0.2702,-0.7801 z m 4.9997,3.6 c 0,0.1936 -0.0586,0.341 -0.1749,0.4448 -0.1162,0.1037 -0.2588,0.155 -0.4252,0.155 -0.1598,0 -0.2999,-0.0513 -0.4198,-0.155 -0.1202,-0.1038 -0.18,-0.2512 -0.18,-0.4448 v -5.04 c 0,-0.1862 0.0598,-0.3336 0.18,-0.4399 0.1199,-0.1063 0.26,-0.1602 0.4198,-0.1602 0.1664,0 0.309,0.0539 0.4252,0.1602 0.1163,0.1063 0.1749,0.2537 0.1749,0.4399 z m 7.3387,-4.4399 h -1.3902 v 4.4399 c 0,0.1936 -0.0598,0.341 -0.18,0.4448 -0.1199,0.1037 -0.2599,0.155 -0.4198,0.155 -0.1664,0 -0.3087,-0.0513 -0.4249,-0.155 -0.1165,-0.1038 -0.1752,-0.2512 -0.1752,-0.4448 v -4.4399 h -1.58 c -0.1862,0 -0.3336,-0.059 -0.4399,-0.1752 -0.1063,-0.1162 -0.1599,-0.2585 -0.1599,-0.4249 0,-0.1599 0.0536,-0.2999 0.1599,-0.4201 0.1063,-0.1199 0.2537,-0.18 0.4399,-0.18 h 4.1701 c 0.1936,0 0.3412,0.0601 0.445,0.18 0.1037,0.1202 0.155,0.2602 0.155,0.4201 0,0.1664 -0.0513,0.3087 -0.155,0.4249 -0.1038,0.1162 -0.2514,0.1752 -0.445,0.1752 z m 9.0513,1.9298 c 0,0.9664 -0.2665,1.7363 -0.8003,2.31 -0.5536,0.58 -1.3099,0.8699 -2.2699,0.8699 -0.9463,0 -1.7,-0.2962 -2.2598,-0.8898 -0.5463,-0.5737 -0.8201,-1.3362 -0.8201,-2.2901 0,-0.9737 0.2713,-1.7487 0.815,-2.3249 0.5437,-0.5763 1.2988,-0.8649 2.2649,-0.8649 0.9538,0 1.7039,0.29 2.2501,0.87 0.5462,0.5799 0.8201,1.3535 0.8201,2.3198 z m -1.2002,0 c 0,-1.326 -0.6237,-1.9899 -1.87,-1.9899 -1.2535,0 -1.88,0.6639 -1.88,1.9899 0,0.62 0.1602,1.105 0.4802,1.4551 0.32,0.35 0.7861,0.5249 1.3998,0.5249 1.2463,0 1.87,-0.6599 1.87,-1.98 z m 9.8801,0 c 0,0.9664 -0.2664,1.7363 -0.8002,2.31 -0.5536,0.58 -1.3099,0.8699 -2.27,0.8699 -0.9462,0 -1.6999,-0.2962 -2.2598,-0.8898 -0.5462,-0.5737 -0.82,-1.3362 -0.82,-2.2901 0,-0.9737 0.2713,-1.7487 0.8149,-2.3249 0.5437,-0.5763 1.2989,-0.8649 2.2649,-0.8649 0.9539,0 1.7039,0.29 2.2502,0.87 0.5462,0.5799 0.82,1.3535 0.82,2.3198 z m -1.2002,0 c 0,-1.326 -0.6236,-1.9899 -1.87,-1.9899 -1.2535,0 -1.8799,0.6639 -1.8799,1.9899 0,0.62 0.1601,1.105 0.4802,1.4551 0.32,0.35 0.786,0.5249 1.3997,0.5249 1.2464,0 1.87,-0.6599 1.87,-1.98 z m 9.6188,-0.0499 c 0,0.66 -0.1814,1.2487 -0.5451,1.7649 -0.3636,0.5162 -0.8549,0.8949 -1.4748,1.135 -0.4663,0.1738 -0.9899,0.2599 -1.5701,0.2599 h -2.1997 v -6.2399 h 2.2598 c 0.9861,0 1.8099,0.2702 2.4701,0.8102 0.7061,0.5737 1.0598,1.33 1.0598,2.2699 z m -1.1999,0 c 0,-0.6063 -0.2401,-1.08 -0.72,-1.4201 -0.4263,-0.3062 -0.9637,-0.4598 -1.61,-0.4598 h -1.0599 v 3.8398 h 0.9998 c 0.4339,0 0.8163,-0.0638 1.15,-0.1899 0.3863,-0.1463 0.6899,-0.375 0.9102,-0.6851 0.22,-0.3099 0.3299,-0.6713 0.3299,-1.0849 z m 7.3999,3.1598 h -3.75 v -6.2399 h 3.75 c 0.1936,0 0.341,0.0601 0.4447,0.18 0.1038,0.1202 0.1551,0.2602 0.1551,0.4201 0,0.1664 -0.0513,0.3087 -0.1551,0.4249 -0.1037,0.1162 -0.2511,0.1752 -0.4447,0.1752 h -2.5501 v 0.94 h 1.55 c 0.1936,0 0.3413,0.0598 0.4451,0.18 0.1037,0.1199 0.1547,0.2599 0.1547,0.4198 0,0.1664 -0.051,0.309 -0.1547,0.4252 -0.1038,0.1162 -0.2515,0.1749 -0.4451,0.1749 h -1.55 v 1.6999 h 2.5501 c 0.1936,0 0.341,0.0601 0.4447,0.18 0.1038,0.1199 0.1551,0.26 0.1551,0.4201 0,0.1661 -0.0513,0.3087 -0.1551,0.4249 -0.1037,0.1162 -0.2511,0.1749 -0.4447,0.1749 z m 11.2697,0 h -3.75 v -6.2399 h 3.75 c 0.1936,0 0.341,0.0601 0.4447,0.18 0.1038,0.1202 0.1551,0.2602 0.1551,0.4201 0,0.1664 -0.0513,0.3087 -0.1551,0.4249 -0.1037,0.1162 -0.2511,0.1752 -0.4447,0.1752 H 160.34 v 0.94 h 1.55 c 0.1936,0 0.3413,0.0598 0.4451,0.18 0.1037,0.1199 0.1547,0.2599 0.1547,0.4198 0,0.1664 -0.051,0.309 -0.1547,0.4252 -0.1038,0.1162 -0.2515,0.1749 -0.4451,0.1749 h -1.55 v 1.6999 h 2.5501 c 0.1936,0 0.341,0.0601 0.4447,0.18 0.1038,0.1199 0.1551,0.26 0.1551,0.4201 0,0.1661 -0.0513,0.3087 -0.1551,0.4249 -0.1037,0.1162 -0.2511,0.1749 -0.4447,0.1749 z m 7.6096,-5.0397 h -1.3901 v 4.4399 c 0,0.1936 -0.0598,0.341 -0.18,0.4448 -0.1199,0.1037 -0.26,0.155 -0.4198,0.155 -0.1664,0 -0.3087,-0.0513 -0.4249,-0.155 -0.1166,-0.1038 -0.1752,-0.2512 -0.1752,-0.4448 v -4.4399 h -1.5801 c -0.1862,0 -0.3336,-0.059 -0.4399,-0.1752 -0.1063,-0.1162 -0.1599,-0.2585 -0.1599,-0.4249 0,-0.1599 0.0536,-0.2999 0.1599,-0.4201 0.1063,-0.1199 0.2537,-0.18 0.4399,-0.18 h 4.1701 c 0.1936,0 0.3413,0.0601 0.445,0.18 0.1038,0.1202 0.1551,0.2602 0.1551,0.4201 0,0.1664 -0.0513,0.3087 -0.1551,0.4249 -0.1037,0.1162 -0.2514,0.1752 -0.445,0.1752 z m 7.6,0 h -1.3902 v 4.4399 c 0,0.1936 -0.0598,0.341 -0.18,0.4448 -0.1199,0.1037 -0.2599,0.155 -0.4198,0.155 -0.1664,0 -0.3087,-0.0513 -0.4249,-0.155 -0.1165,-0.1038 -0.1752,-0.2512 -0.1752,-0.4448 v -4.4399 h -1.58 c -0.1862,0 -0.3336,-0.059 -0.4399,-0.1752 -0.1063,-0.1162 -0.1599,-0.2585 -0.1599,-0.4249 0,-0.1599 0.0536,-0.2999 0.1599,-0.4201 0.1063,-0.1199 0.2537,-0.18 0.4399,-0.18 h 4.1701 c 0.1936,0 0.3412,0.0601 0.445,0.18 0.1037,0.1202 0.155,0.2602 0.155,0.4201 0,0.1664 -0.0513,0.3087 -0.155,0.4249 -0.1038,0.1162 -0.2514,0.1752 -0.445,0.1752 z m 6.6101,5.0397 h -3.75 v -6.2399 h 3.75 c 0.1936,0 0.341,0.0601 0.4447,0.18 0.1038,0.1202 0.1551,0.2602 0.1551,0.4201 0,0.1664 -0.0513,0.3087 -0.1551,0.4249 -0.1037,0.1162 -0.2511,0.1752 -0.4447,0.1752 h -2.5501 v 0.94 h 1.55 c 0.1936,0 0.3413,0.0598 0.445,0.18 0.1038,0.1199 0.1548,0.2599 0.1548,0.4198 0,0.1664 -0.051,0.309 -0.1548,0.4252 -0.1037,0.1162 -0.2514,0.1749 -0.445,0.1749 h -1.55 v 1.6999 h 2.5501 c 0.1936,0 0.341,0.0601 0.4447,0.18 0.1038,0.1199 0.1551,0.26 0.1551,0.4201 0,0.1661 -0.0513,0.3087 -0.1551,0.4249 -0.1037,0.1162 -0.2511,0.1749 -0.4447,0.1749 z m 8.6196,-5.5797 -1.74,4.8399 c -0.1601,0.4535 -0.5161,0.68 -1.07,0.68 -0.5536,0 -0.91,-0.2265 -1.0701,-0.68 l -1.7099,-4.8399 c -0.0263,-0.0802 -0.0399,-0.1562 -0.0399,-0.2302 0,-0.1661 0.0637,-0.305 0.1899,-0.415 0.1264,-0.1099 0.2687,-0.1649 0.4289,-0.1649 0.2724,0 0.4549,0.1338 0.5488,0.4014 l 1.6611,4.6448 1.6713,-4.6463 c 0.0924,-0.2661 0.2724,-0.3999 0.54,-0.3999 0.1661,0 0.3135,0.055 0.4399,0.1649 0.1261,0.11 0.1899,0.2489 0.1899,0.415 0,0.074 -0.0136,0.15 -0.0399,0.2302 z m 8.5011,2.4698 c 0,0.9664 -0.2665,1.7363 -0.8003,2.31 -0.5536,0.58 -1.3099,0.8699 -2.2699,0.8699 -0.9463,0 -1.7,-0.2962 -2.2598,-0.8898 -0.5463,-0.5737 -0.8201,-1.3362 -0.8201,-2.2901 0,-0.9737 0.2713,-1.7487 0.815,-2.3249 0.5437,-0.5763 1.2988,-0.8649 2.2649,-0.8649 0.9538,0 1.7039,0.29 2.2501,0.87 0.5462,0.5799 0.8201,1.3535 0.8201,2.3198 z m -1.2002,0 c 0,-1.326 -0.6237,-1.9899 -1.87,-1.9899 -1.2535,0 -1.88,0.6639 -1.88,1.9899 0,0.62 0.1602,1.105 0.4802,1.4551 0.32,0.35 0.7861,0.5249 1.3998,0.5249 1.2463,0 1.87,-0.6599 1.87,-1.98 z m 8.4288,-1.9298 h -1.3901 v 4.4399 c 0,0.1936 -0.0598,0.341 -0.18,0.4448 -0.1199,0.1037 -0.26,0.155 -0.4198,0.155 -0.1664,0 -0.3087,-0.0513 -0.4249,-0.155 -0.1166,-0.1038 -0.1752,-0.2512 -0.1752,-0.4448 v -4.4399 h -1.5801 c -0.1862,0 -0.3336,-0.059 -0.4399,-0.1752 -0.1063,-0.1162 -0.1599,-0.2585 -0.1599,-0.4249 0,-0.1599 0.0536,-0.2999 0.1599,-0.4201 0.1063,-0.1199 0.2537,-0.18 0.4399,-0.18 h 4.1701 c 0.1936,0 0.3413,0.0601 0.445,0.18 0.1038,0.1202 0.1551,0.2602 0.1551,0.4201 0,0.1664 -0.0513,0.3087 -0.1551,0.4249 -0.1037,0.1162 -0.2514,0.1752 -0.445,0.1752 z m 6.6311,2.8199 c 0,0.6463 -0.2362,1.1849 -0.7098,1.6149 -0.4737,0.43 -1.0338,0.6449 -1.6801,0.6449 -0.3663,0 -0.62,-0.004 -0.76,-0.01 -0.3662,-0.0261 -0.5499,-0.2237 -0.5499,-0.5899 0,-0.1664 0.0561,-0.3113 0.1701,-0.4351 0.1136,-0.1236 0.2698,-0.1786 0.47,-0.165 0.0198,0 0.2437,0 0.6698,0 0.32,0 0.5987,-0.0987 0.8351,-0.2951 0.2361,-0.1962 0.3549,-0.451 0.3549,-0.7648 v -3.42 c 0,-0.1862 0.0586,-0.3336 0.1751,-0.4399 0.1163,-0.1063 0.2586,-0.1602 0.425,-0.1602 0.1598,0 0.2999,0.0539 0.4198,0.1602 0.1202,0.1063 0.18,0.2537 0.18,0.4399 z m 8.2587,1.4199 c 0.0261,0.0799 0.04,0.1539 0.04,0.22 0,0.1737 -0.0638,0.3149 -0.1914,0.4249 -0.1261,0.1102 -0.2738,0.1652 -0.4413,0.1652 -0.2673,0 -0.4487,-0.1326 -0.5423,-0.3988 l -0.3889,-1.0712 h -2.5424 l -0.3937,1.0698 c -0.0924,0.2664 -0.2764,0.4002 -0.5499,0.4002 -0.1602,0 -0.3039,-0.055 -0.4301,-0.1652 -0.1264,-0.11 -0.1899,-0.2486 -0.1899,-0.415 0,-0.0737 0.0136,-0.15 0.04,-0.2299 l 1.73,-4.8399 c 0.1661,-0.4538 0.5235,-0.68 1.0698,-0.68 0.5539,0 0.9139,0.2262 1.08,0.68 z m -1.9414,-1.84 -0.8623,-2.4111 -0.8513,2.4111 z m 9.1511,-2.3998 h -1.3902 v 4.4399 c 0,0.1936 -0.0598,0.341 -0.18,0.4448 -0.1199,0.1037 -0.2599,0.155 -0.4198,0.155 -0.1664,0 -0.3087,-0.0513 -0.4249,-0.155 -0.1165,-0.1038 -0.1752,-0.2512 -0.1752,-0.4448 v -4.4399 h -1.58 c -0.1862,0 -0.3336,-0.059 -0.4399,-0.1752 -0.1063,-0.1162 -0.1599,-0.2585 -0.1599,-0.4249 0,-0.1599 0.0536,-0.2999 0.1599,-0.4201 0.1063,-0.1199 0.2537,-0.18 0.4399,-0.18 h 4.1701 c 0.1936,0 0.3412,0.0601 0.445,0.18 0.1037,0.1202 0.155,0.2602 0.155,0.4201 0,0.1664 -0.0513,0.3087 -0.155,0.4249 -0.1038,0.1162 -0.2514,0.1752 -0.445,0.1752 z m 6.6101,5.0397 h -3.75 v -6.2399 h 3.75 c 0.1936,0 0.341,0.0601 0.4447,0.18 0.1038,0.1202 0.1551,0.2602 0.1551,0.4201 0,0.1664 -0.0513,0.3087 -0.1551,0.4249 -0.1037,0.1162 -0.2511,0.1752 -0.4447,0.1752 h -2.5501 v 0.94 h 1.55 c 0.1936,0 0.3413,0.0598 0.445,0.18 0.1038,0.1199 0.1548,0.2599 0.1548,0.4198 0,0.1664 -0.051,0.309 -0.1548,0.4252 -0.1037,0.1162 -0.2514,0.1749 -0.445,0.1749 h -1.55 v 1.6999 h 2.5501 c 0.1936,0 0.341,0.0601 0.4447,0.18 0.1038,0.1199 0.1551,0.26 0.1551,0.4201 0,0.1661 -0.0513,0.3087 -0.1551,0.4249 -0.1037,0.1162 -0.2511,0.1749 -0.4447,0.1749 z m -90.8235,13.4547 h -3.96 v -5.6398 c 0,-0.1863 0.0601,-0.3337 0.18,-0.44 0.1202,-0.1063 0.2599,-0.1601 0.4201,-0.1601 0.1599,0 0.2999,0.0538 0.4201,0.1601 0.1199,0.1063 0.18,0.2537 0.18,0.44 v 4.4399 h 2.7598 c 0.1862,0 0.3336,0.0601 0.4399,0.18 0.1063,0.1199 0.1602,0.2599 0.1602,0.4201 0,0.1661 -0.0539,0.3087 -0.1602,0.4249 -0.1063,0.1162 -0.2537,0.1749 -0.4399,0.1749 z m 4.0711,-0.5998 c 0,0.1936 -0.0587,0.341 -0.1749,0.4447 -0.1162,0.1038 -0.2588,0.1551 -0.4252,0.1551 -0.1599,0 -0.2999,-0.0513 -0.4198,-0.1551 -0.1202,-0.1037 -0.18,-0.2511 -0.18,-0.4447 v -5.04 c 0,-0.1863 0.0598,-0.3337 0.18,-0.44 0.1199,-0.1063 0.2599,-0.1601 0.4198,-0.1601 0.1664,0 0.309,0.0538 0.4252,0.1601 0.1162,0.1063 0.1749,0.2537 0.1749,0.44 z m 3.8999,0 c 0,0.1936 -0.0587,0.341 -0.1749,0.4447 -0.1162,0.1038 -0.2588,0.1551 -0.4252,0.1551 -0.1598,0 -0.2999,-0.0513 -0.4198,-0.1551 -0.1202,-0.1037 -0.18,-0.2511 -0.18,-0.4447 v -5.04 c 0,-0.1863 0.0598,-0.3337 0.18,-0.44 0.1199,-0.1063 0.26,-0.1601 0.4198,-0.1601 0.1664,0 0.309,0.0538 0.4252,0.1601 0.1162,0.1063 0.1749,0.2537 0.1749,0.44 z m 7.3386,-4.4399 h -1.3901 v 4.4399 c 0,0.1936 -0.0598,0.341 -0.18,0.4447 -0.1199,0.1038 -0.2599,0.1551 -0.4198,0.1551 -0.1664,0 -0.3087,-0.0513 -0.4249,-0.1551 -0.1165,-0.1037 -0.1752,-0.2511 -0.1752,-0.4447 v -4.4399 h -1.58 c -0.1862,0 -0.3337,-0.059 -0.4399,-0.1752 -0.1063,-0.1162 -0.1599,-0.2585 -0.1599,-0.4249 0,-0.1599 0.0536,-0.2999 0.1599,-0.4201 0.1062,-0.1199 0.2537,-0.18 0.4399,-0.18 h 4.17 c 0.1936,0 0.3413,0.0601 0.4451,0.18 0.1037,0.1202 0.155,0.2602 0.155,0.4201 0,0.1664 -0.0513,0.3087 -0.155,0.4249 -0.1038,0.1162 -0.2515,0.1752 -0.4451,0.1752 z"
           style="fill:#03325e;fill-opacity:1;fill-rule:evenodd"
           id="path11" />
        <g
           id="Layer1008">
          <path
             d="m 124.1918,204.8683 c -0.3376,0 -0.6132,0.2756 -0.6132,0.6132 0,0.3376 0.2756,0.6131 0.6132,0.6131 0.3376,0 0.6131,-0.2755 0.6131,-0.6131 0,-0.3376 -0.2755,-0.6132 -0.6131,-0.6132 z"
             style="fill:#03325e;fill-opacity:1;fill-rule:evenodd"
             id="path12" />
          <path
             d="m 126.2741,204.8683 c -0.3376,0 -0.6131,0.2756 -0.6131,0.6132 0,0.3376 0.2755,0.6131 0.6131,0.6131 0.3376,0 0.6131,-0.2755 0.6131,-0.6131 0,-0.3376 -0.2755,-0.6132 -0.6131,-0.6132 z"
             style="fill:#03325e;fill-opacity:1;fill-rule:evenodd"
             id="path13" />
        </g>
        <g
           id="Layer1009">
          <path
             d="m 132.9038,204.8683 c -0.3376,0 -0.6132,0.2756 -0.6132,0.6132 0,0.3376 0.2756,0.6131 0.6132,0.6131 0.3376,0 0.6131,-0.2755 0.6131,-0.6131 0,-0.3376 -0.2755,-0.6132 -0.6131,-0.6132 z"
             style="fill:#03325e;fill-opacity:1;fill-rule:evenodd"
             id="path14" />
          <path
             d="m 134.9861,204.8683 c -0.3376,0 -0.6131,0.2756 -0.6131,0.6132 0,0.3376 0.2755,0.6131 0.6131,0.6131 0.3376,0 0.6131,-0.2755 0.6131,-0.6131 0,-0.3376 -0.2755,-0.6132 -0.6131,-0.6132 z"
             style="fill:#03325e;fill-opacity:1;fill-rule:evenodd"
             id="path15" />
        </g>
        <path
           d="m 197.7114,204.8683 c -0.3376,0 -0.6131,0.2756 -0.6131,0.6132 0,0.3376 0.2755,0.6131 0.6131,0.6131 h 2.0824 c 0.3376,0 0.6131,-0.2755 0.6131,-0.6131 0,-0.3376 -0.2755,-0.6132 -0.6131,-0.6132 -0.005,0 -0.0108,-2e-4 -0.0162,0 h -2.0509 c -0.005,-2e-4 -0.01,0 -0.0153,0 z"
           style="fill:#03325e;fill-opacity:1;fill-rule:evenodd"
           id="path16" />
      </g>
    </g>
  </g>
</svg>
